# xmcd CD database file
#
# Track frame offsets:
#	150
#	14777
#	23637
#	31700
#	44212
#	52442
#	63577
#	71792
#	87472
#	97792
#
# Disc length: 1428 seconds
#
# Revision: 0
# Processed by: cddbd v1.5.1PL2 Copyright (c) Steve Scherf et al.
# Submitted via: CDex 1.70beta2
#
DISCID=8f05920a
DTITLE=Groovy Rednecks - Buzzed
DYEAR=1996
DGENRE=Country
TTITLE0=01 I guess I was buzzed
TTITLE1=02 Naked, Naked, Naked
TTITLE2=03 Honeymoon
TTITLE3=04 Hippie go home
TTITLE4=05 I had a date with a bottle
TTITLE5=06 Dont talk bad about the king
TTITLE6=07 Punch yer neighbors lights out
TTITLE7=08 Her reputation
TTITLE8=09 Mr Pawnbroker
TTITLE9=10 How come I only love you when I'm drunk?
EXTD=YEAR: 1996
EXTT0=
EXTT1=
EXTT2=
EXTT3=
EXTT4=
EXTT5=
EXTT6=
EXTT7=
EXTT8=
EXTT9=
PLAYORDER=
